<svg width="75" height="75" viewBox="0 0 100 100" fill="none" xmlns="http://www.w3.org/2000/svg">
<circle cx="50" cy="50" r="50" fill="#102039"/>
<path d="M24.0172 46.7588C25.5691 33.9788 36.6393 23.9817 49.9856 23.9817C55.4689 23.9817 60.435 25.6307 64.6768 28.5165L71.6086 28.4134L71.5052 22.0234C65.5045 17.4886 58.0554 14.7059 49.9856 14.7059C31.6732 14.7059 16.4647 28.6195 14.7059 46.4496L19.2581 41.9148L24.0172 46.7588Z" fill="#F3F9FF"/>
<path d="M55.6119 75.5188C53.7619 75.9304 51.8091 76.1362 49.8563 76.1362C36.3922 76.1362 25.2921 65.8464 23.956 52.5725L19.3309 47.8392L14.7059 52.3667C15.9392 70.7855 31.2533 85.2942 49.8563 85.2942C53.0424 85.2942 56.1258 84.8826 59.0036 84.0594L52.6313 80.2521L55.6119 75.5188Z" fill="#F3F9FF"/>
<path d="M75.5287 25.8704L75.6325 32.5649L69.1915 32.6679C73.4509 37.3025 76.0481 43.379 76.0481 50.1765C76.0481 60.2697 70.2304 69.0241 61.8155 73.3497L58.2833 79.0143L64.101 82.413C76.5675 76.9544 85.2941 64.5954 85.2941 50.1765C85.2941 40.8042 81.5542 32.2559 75.5287 25.8704Z" fill="#F3F9FF"/>
</svg>
